<svg width="932" height="345" viewBox="0 0 932 345" fill="none" xmlns="http://www.w3.org/2000/svg">
<circle cx="658" cy="163" r="10" fill="#F1F2F2"/>
<circle cx="682" cy="163" r="10" fill="#F1F2F2"/>
<circle cx="706" cy="163" r="10" fill="#F1F2F2"/>
<circle cx="730" cy="163" r="10" fill="#F1F2F2"/>
<circle cx="754" cy="163" r="10" fill="#F1F2F2"/>
<circle cx="778" cy="163" r="10" fill="#F1F2F2"/>
<circle cx="802" cy="163" r="10" fill="#F1F2F2"/>
<circle cx="826" cy="163" r="10" fill="#F1F2F2"/>
<circle cx="850" cy="163" r="10" fill="#F1F2F2"/>
<circle cx="874" cy="163" r="10" fill="#F1F2F2"/>
<circle cx="898" cy="163" r="10" fill="#F1F2F2"/>
<circle cx="922" cy="163" r="10" fill="#F1F2F2"/>
<circle cx="802" cy="186" r="10" fill="#F1F2F2"/>
<circle cx="826" cy="186" r="10" fill="#F1F2F2"/>
<circle cx="850" cy="186" r="10" fill="#F1F2F2"/>
<circle cx="874" cy="186" r="10" fill="#F1F2F2"/>
<circle cx="898" cy="186" r="10" fill="#F1F2F2"/>
<circle cx="922" cy="186" r="10" fill="#F1F2F2"/>
<circle cx="656" cy="186" r="10" fill="#F1F2F2"/>
<circle cx="680" cy="186" r="10" fill="#F1F2F2"/>
<circle cx="704" cy="186" r="10" fill="#F1F2F2"/>
<circle cx="728" cy="186" r="10" fill="#F1F2F2"/>
<circle cx="752" cy="186" r="10" fill="#F1F2F2"/>
<circle cx="776" cy="186" r="10" fill="#F1F2F2"/>
<circle cx="658" cy="209" r="10" fill="#F1F2F2"/>
<circle cx="682" cy="209" r="10" fill="#F1F2F2"/>
<circle cx="706" cy="209" r="10" fill="#F1F2F2"/>
<circle cx="730" cy="209" r="10" fill="#F1F2F2"/>
<circle cx="754" cy="209" r="10" fill="#F1F2F2"/>
<circle cx="778" cy="209" r="10" fill="#F1F2F2"/>
<circle cx="802" cy="209" r="10" fill="#F1F2F2"/>
<circle cx="826" cy="209" r="10" fill="#F1F2F2"/>
<circle cx="850" cy="209" r="10" fill="#F1F2F2"/>
<circle cx="874" cy="209" r="10" fill="#F1F2F2"/>
<circle cx="898" cy="209" r="10" fill="#F1F2F2"/>
<circle cx="922" cy="209" r="10" fill="#F1F2F2"/>
<circle cx="802" cy="232" r="10" fill="#F1F2F2"/>
<circle cx="826" cy="232" r="10" fill="#F1F2F2"/>
<circle cx="850" cy="232" r="10" fill="#F1F2F2"/>
<circle cx="874" cy="232" r="10" fill="#F1F2F2"/>
<circle cx="898" cy="232" r="10" fill="#F1F2F2"/>
<circle cx="922" cy="232" r="10" fill="#F1F2F2"/>
<circle cx="656" cy="232" r="10" fill="#F1F2F2"/>
<circle cx="680" cy="232" r="10" fill="#F1F2F2"/>
<circle cx="704" cy="232" r="10" fill="#F1F2F2"/>
<circle cx="728" cy="232" r="10" fill="#F1F2F2"/>
<circle cx="752" cy="232" r="10" fill="#F1F2F2"/>
<circle cx="776" cy="232" r="10" fill="#F1F2F2"/>
<circle cx="611" cy="72" r="10" fill="#F1F2F2"/>
<circle cx="635" cy="72" r="10" fill="#F1F2F2"/>
<circle cx="659" cy="72" r="10" fill="#F1F2F2"/>
<circle cx="683" cy="72" r="10" fill="#F1F2F2"/>
<circle cx="707" cy="72" r="10" fill="#F1F2F2"/>
<circle cx="731" cy="72" r="10" fill="#F1F2F2"/>
<circle cx="755" cy="72" r="10" fill="#F1F2F2"/>
<circle cx="779" cy="72" r="10" fill="#F1F2F2"/>
<circle cx="803" cy="72" r="10" fill="#F1F2F2"/>
<circle cx="827" cy="72" r="10" fill="#F1F2F2"/>
<circle cx="851" cy="72" r="10" fill="#F1F2F2"/>
<circle cx="875" cy="72" r="10" fill="#F1F2F2"/>
<circle cx="755" cy="95" r="10" fill="#F1F2F2"/>
<circle cx="779" cy="95" r="10" fill="#F1F2F2"/>
<circle cx="803" cy="95" r="10" fill="#F1F2F2"/>
<circle cx="827" cy="95" r="10" fill="#F1F2F2"/>
<circle cx="851" cy="95" r="10" fill="#F1F2F2"/>
<circle cx="875" cy="95" r="10" fill="#F1F2F2"/>
<circle cx="609" cy="95" r="10" fill="#F1F2F2"/>
<circle cx="633" cy="95" r="10" fill="#F1F2F2"/>
<circle cx="657" cy="95" r="10" fill="#F1F2F2"/>
<circle cx="681" cy="95" r="10" fill="#F1F2F2"/>
<circle cx="705" cy="95" r="10" fill="#F1F2F2"/>
<circle cx="729" cy="95" r="10" fill="#F1F2F2"/>
<circle cx="611" cy="118" r="10" fill="#F1F2F2"/>
<circle cx="635" cy="118" r="10" fill="#F1F2F2"/>
<circle cx="659" cy="118" r="10" fill="#F1F2F2"/>
<circle cx="683" cy="118" r="10" fill="#F1F2F2"/>
<circle cx="707" cy="118" r="10" fill="#F1F2F2"/>
<circle cx="731" cy="118" r="10" fill="#F1F2F2"/>
<circle cx="755" cy="118" r="10" fill="#F1F2F2"/>
<circle cx="779" cy="118" r="10" fill="#F1F2F2"/>
<circle cx="803" cy="118" r="10" fill="#F1F2F2"/>
<circle cx="827" cy="118" r="10" fill="#F1F2F2"/>
<circle cx="851" cy="118" r="10" fill="#F1F2F2"/>
<circle cx="875" cy="118" r="10" fill="#F1F2F2"/>
<circle cx="755" cy="141" r="10" fill="#F1F2F2"/>
<circle cx="779" cy="141" r="10" fill="#F1F2F2"/>
<circle cx="803" cy="141" r="10" fill="#F1F2F2"/>
<circle cx="827" cy="141" r="10" fill="#F1F2F2"/>
<circle cx="851" cy="141" r="10" fill="#F1F2F2"/>
<circle cx="875" cy="141" r="10" fill="#F1F2F2"/>
<circle cx="609" cy="141" r="10" fill="#F1F2F2"/>
<circle cx="633" cy="141" r="10" fill="#F1F2F2"/>
<circle cx="657" cy="141" r="10" fill="#F1F2F2"/>
<circle cx="681" cy="141" r="10" fill="#F1F2F2"/>
<circle cx="705" cy="141" r="10" fill="#F1F2F2"/>
<circle cx="729" cy="141" r="10" fill="#F1F2F2"/>
<circle cx="39" cy="266" r="10" fill="#F1F2F2"/>
<circle cx="63" cy="266" r="10" fill="#F1F2F2"/>
<circle cx="87" cy="266" r="10" fill="#F1F2F2"/>
<circle cx="111" cy="266" r="10" fill="#F1F2F2"/>
<circle cx="135" cy="266" r="10" fill="#F1F2F2"/>
<circle cx="159" cy="266" r="10" fill="#F1F2F2"/>
<circle cx="183" cy="266" r="10" fill="#F1F2F2"/>
<circle cx="207" cy="266" r="10" fill="#F1F2F2"/>
<circle cx="231" cy="266" r="10" fill="#F1F2F2"/>
<circle cx="255" cy="266" r="10" fill="#F1F2F2"/>
<circle cx="279" cy="266" r="10" fill="#F1F2F2"/>
<circle cx="303" cy="266" r="10" fill="#F1F2F2"/>
<circle cx="183" cy="289" r="10" fill="#F1F2F2"/>
<circle cx="207" cy="289" r="10" fill="#F1F2F2"/>
<circle cx="231" cy="289" r="10" fill="#F1F2F2"/>
<circle cx="255" cy="289" r="10" fill="#F1F2F2"/>
<circle cx="279" cy="289" r="10" fill="#F1F2F2"/>
<circle cx="303" cy="289" r="10" fill="#F1F2F2"/>
<circle cx="37" cy="289" r="10" fill="#F1F2F2"/>
<circle cx="61" cy="289" r="10" fill="#F1F2F2"/>
<circle cx="85" cy="289" r="10" fill="#F1F2F2"/>
<circle cx="109" cy="289" r="10" fill="#F1F2F2"/>
<circle cx="133" cy="289" r="10" fill="#F1F2F2"/>
<circle cx="157" cy="289" r="10" fill="#F1F2F2"/>
<circle cx="39" cy="312" r="10" fill="#F1F2F2"/>
<circle cx="63" cy="312" r="10" fill="#F1F2F2"/>
<circle cx="87" cy="312" r="10" fill="#F1F2F2"/>
<circle cx="111" cy="312" r="10" fill="#F1F2F2"/>
<circle cx="135" cy="312" r="10" fill="#F1F2F2"/>
<circle cx="159" cy="312" r="10" fill="#F1F2F2"/>
<circle cx="183" cy="312" r="10" fill="#F1F2F2"/>
<circle cx="207" cy="312" r="10" fill="#F1F2F2"/>
<circle cx="231" cy="312" r="10" fill="#F1F2F2"/>
<circle cx="255" cy="312" r="10" fill="#F1F2F2"/>
<circle cx="279" cy="312" r="10" fill="#F1F2F2"/>
<circle cx="303" cy="312" r="10" fill="#F1F2F2"/>
<circle cx="183" cy="335" r="10" fill="#F1F2F2"/>
<circle cx="207" cy="335" r="10" fill="#F1F2F2"/>
<circle cx="231" cy="335" r="10" fill="#F1F2F2"/>
<circle cx="255" cy="335" r="10" fill="#F1F2F2"/>
<circle cx="279" cy="335" r="10" fill="#F1F2F2"/>
<circle cx="303" cy="335" r="10" fill="#F1F2F2"/>
<circle cx="37" cy="335" r="10" fill="#F1F2F2"/>
<circle cx="61" cy="335" r="10" fill="#F1F2F2"/>
<circle cx="85" cy="335" r="10" fill="#F1F2F2"/>
<circle cx="109" cy="335" r="10" fill="#F1F2F2"/>
<circle cx="133" cy="335" r="10" fill="#F1F2F2"/>
<circle cx="157" cy="335" r="10" fill="#F1F2F2"/>
<circle cx="12" cy="10" r="10" fill="#F1F2F2"/>
<circle cx="36" cy="10" r="10" fill="#F1F2F2"/>
<circle cx="60" cy="10" r="10" fill="#F1F2F2"/>
<circle cx="84" cy="10" r="10" fill="#F1F2F2"/>
<circle cx="108" cy="10" r="10" fill="#F1F2F2"/>
<circle cx="132" cy="10" r="10" fill="#F1F2F2"/>
<circle cx="156" cy="10" r="10" fill="#F1F2F2"/>
<circle cx="180" cy="10" r="10" fill="#F1F2F2"/>
<circle cx="204" cy="10" r="10" fill="#F1F2F2"/>
<circle cx="228" cy="10" r="10" fill="#F1F2F2"/>
<circle cx="252" cy="10" r="10" fill="#F1F2F2"/>
<circle cx="276" cy="10" r="10" fill="#F1F2F2"/>
<circle cx="156" cy="33" r="10" fill="#F1F2F2"/>
<circle cx="180" cy="33" r="10" fill="#F1F2F2"/>
<circle cx="204" cy="33" r="10" fill="#F1F2F2"/>
<circle cx="228" cy="33" r="10" fill="#F1F2F2"/>
<circle cx="252" cy="33" r="10" fill="#F1F2F2"/>
<circle cx="276" cy="33" r="10" fill="#F1F2F2"/>
<circle cx="10" cy="33" r="10" fill="#F1F2F2"/>
<circle cx="34" cy="33" r="10" fill="#F1F2F2"/>
<circle cx="58" cy="33" r="10" fill="#F1F2F2"/>
<circle cx="82" cy="33" r="10" fill="#F1F2F2"/>
<circle cx="106" cy="33" r="10" fill="#F1F2F2"/>
<circle cx="130" cy="33" r="10" fill="#F1F2F2"/>
<circle cx="12" cy="56" r="10" fill="#F1F2F2"/>
<circle cx="36" cy="56" r="10" fill="#F1F2F2"/>
<circle cx="60" cy="56" r="10" fill="#F1F2F2"/>
<circle cx="84" cy="56" r="10" fill="#F1F2F2"/>
<circle cx="108" cy="56" r="10" fill="#F1F2F2"/>
<circle cx="132" cy="56" r="10" fill="#F1F2F2"/>
<circle cx="156" cy="56" r="10" fill="#F1F2F2"/>
<circle cx="180" cy="56" r="10" fill="#F1F2F2"/>
<circle cx="204" cy="56" r="10" fill="#F1F2F2"/>
<circle cx="228" cy="56" r="10" fill="#F1F2F2"/>
<circle cx="252" cy="56" r="10" fill="#F1F2F2"/>
<circle cx="276" cy="56" r="10" fill="#F1F2F2"/>
<circle cx="156" cy="79" r="10" fill="#F1F2F2"/>
<circle cx="180" cy="79" r="10" fill="#F1F2F2"/>
<circle cx="204" cy="79" r="10" fill="#F1F2F2"/>
<circle cx="228" cy="79" r="10" fill="#F1F2F2"/>
<circle cx="252" cy="79" r="10" fill="#F1F2F2"/>
<circle cx="276" cy="79" r="10" fill="#F1F2F2"/>
<circle cx="10" cy="79" r="10" fill="#F1F2F2"/>
<circle cx="34" cy="79" r="10" fill="#F1F2F2"/>
<circle cx="58" cy="79" r="10" fill="#F1F2F2"/>
<circle cx="82" cy="79" r="10" fill="#F1F2F2"/>
<circle cx="106" cy="79" r="10" fill="#F1F2F2"/>
<circle cx="130" cy="79" r="10" fill="#F1F2F2"/>
</svg>
