<svg width="426" height="321" viewBox="0 0 426 321" fill="none" xmlns="http://www.w3.org/2000/svg">
<path d="M65.4286 173.347L171.159 66.9464L304.345 199.293C312.18 207.079 312.22 219.742 304.435 227.577L226.899 305.605C219.113 313.44 206.45 313.48 198.615 305.694L65.4286 173.347Z" fill="#59B25B"/>
<ellipse cx="117.023" cy="118.884" rx="75" ry="67.1642" transform="rotate(-45.1812 117.023 118.884)" fill="#59B25B"/>
<path d="M9.57608 117.847C4.28736 112.591 4.26033 104.044 9.51571 98.755V98.755C14.7711 93.4663 23.3188 93.4393 28.6075 98.6947L84.46 154.195L65.4286 173.347L9.57608 117.847Z" fill="#59B25B"/>
<path d="M146.682 223.073C142.297 218.716 142.274 211.628 146.632 207.243L151.997 201.843C156.355 197.458 163.443 197.436 167.828 201.793V201.793C172.213 206.151 172.236 213.239 167.878 217.624L162.513 223.023C158.155 227.409 151.067 227.431 146.682 223.073V223.073Z" fill="#59B25B"/>
<path d="M173.467 196.119C169.082 191.761 169.059 184.673 173.417 180.288L178.782 174.888C183.14 170.503 190.228 170.481 194.613 174.838V174.838C198.998 179.196 199.021 186.284 194.663 190.669L189.298 196.069C184.94 200.454 177.852 200.476 173.467 196.119V196.119Z" fill="#59B25B"/>
<path d="M200.252 169.164C195.866 164.806 195.844 157.718 200.202 153.333L205.567 147.934C209.925 143.548 217.012 143.526 221.398 147.884V147.884C225.783 152.241 225.806 159.329 221.448 163.714L216.082 169.114C211.725 173.499 204.637 173.521 200.252 169.164V169.164Z" fill="#59B25B"/>
<path d="M167.644 243.904C163.259 239.546 163.237 232.459 167.594 228.073L172.96 222.674C177.317 218.288 184.405 218.266 188.79 222.624V222.624C193.176 226.981 193.198 234.069 188.841 238.454L183.475 243.854C179.117 248.239 172.03 248.262 167.644 243.904V243.904Z" fill="#59B25B"/>
<path d="M194.429 216.949C190.044 212.591 190.022 205.504 194.379 201.118L199.745 195.719C204.102 191.334 211.19 191.311 215.575 195.669V195.669C219.961 200.027 219.983 207.114 215.625 211.5L210.26 216.899C205.902 221.284 198.815 221.307 194.429 216.949V216.949Z" fill="#59B25B"/>
<path d="M221.214 189.994C216.829 185.636 216.807 178.549 221.164 174.163L226.53 168.764C230.887 164.379 237.975 164.356 242.36 168.714V168.714C246.746 173.072 246.768 180.159 242.41 184.545L237.045 189.944C232.687 194.329 225.6 194.352 221.214 189.994V189.994Z" fill="#59B25B"/>
<path d="M191.148 267.259C186.763 262.902 186.74 255.814 191.098 251.429L196.463 246.029C200.821 241.644 207.909 241.621 212.294 245.979V245.979C216.679 250.337 216.702 257.424 212.344 261.81L206.979 267.209C202.621 271.595 195.533 271.617 191.148 267.259V267.259Z" fill="#59B25B"/>
<path d="M217.933 240.304C213.548 235.947 213.525 228.859 217.883 224.474L223.248 219.074C227.606 214.689 234.694 214.666 239.079 219.024V219.024C243.464 223.382 243.487 230.469 239.129 234.855L233.764 240.254C229.406 244.64 222.318 244.662 217.933 240.304V240.304Z" fill="#59B25B"/>
<path d="M244.718 213.349C240.333 208.992 240.31 201.904 244.668 197.519L250.033 192.119C254.391 187.734 261.479 187.712 265.864 192.069V192.069C270.249 196.427 270.272 203.515 265.914 207.9L260.549 213.299C256.191 217.685 249.103 217.707 244.718 213.349V213.349Z" fill="#59B25B"/>
<path d="M360.513 171.416L253.654 66.1482L106.879 215.142L213.737 320.409L360.513 171.416Z" fill="#55D058"/>
<ellipse rx="75" ry="67.6119" transform="matrix(-0.712391 -0.701783 -0.701783 0.712391 308.349 117.497)" fill="#55D058"/>
<path d="M416.202 114.885C421.434 109.573 421.37 101.026 416.059 95.7934V95.7934C410.747 90.561 402.2 90.6251 396.967 95.9366L341.278 152.467L360.513 171.416L416.202 114.885Z" fill="#55D058"/>
<path d="M279.361 222.446C283.728 218.012 283.675 210.877 279.241 206.51L273.925 201.273C269.491 196.905 262.356 196.959 257.989 201.392V201.392C253.621 205.826 253.675 212.96 258.108 217.328L263.425 222.565C267.858 226.933 274.993 226.879 279.361 222.446V222.446Z" fill="#DEFFE1"/>
<path d="M252.29 195.778C256.657 191.344 256.604 184.21 252.17 179.842L246.854 174.605C242.42 170.237 235.286 170.291 230.918 174.724V174.724C226.55 179.158 226.604 186.293 231.038 190.66L236.354 195.897C240.787 200.265 247.922 200.211 252.29 195.778V195.778Z" fill="#DEFFE1"/>
<path d="M225.219 169.11C229.586 164.677 229.533 157.542 225.099 153.174L219.783 147.937C215.349 143.57 208.215 143.623 203.847 148.057V148.057C199.48 152.49 199.533 159.625 203.967 163.992L209.283 169.23C213.717 173.597 220.851 173.544 225.219 169.11V169.11Z" fill="#DEFFE1"/>
<path d="M258.483 243.639C262.851 239.205 262.797 232.07 258.364 227.703L253.047 222.466C248.614 218.098 241.479 218.152 237.111 222.585V222.585C232.744 227.019 232.797 234.154 237.231 238.521L242.547 243.758C246.981 248.126 254.116 248.072 258.483 243.639V243.639Z" fill="#DEFFE1"/>
<path d="M231.412 216.971C235.78 212.537 235.726 205.403 231.293 201.035L225.976 195.798C221.543 191.43 214.408 191.484 210.041 195.917V195.917C205.673 200.351 205.726 207.486 210.16 211.853L215.476 217.091C219.91 221.458 227.045 221.405 231.412 216.971V216.971Z" fill="#DEFFE1"/>
<path d="M204.341 190.303C208.709 185.87 208.655 178.735 204.222 174.367L198.905 169.13C194.472 164.763 187.337 164.816 182.97 169.25V169.25C178.602 173.683 178.656 180.818 183.089 185.186L188.406 190.423C192.839 194.79 199.974 194.737 204.341 190.303V190.303Z" fill="#DEFFE1"/>
<path d="M235.075 267.401C239.443 262.967 239.389 255.832 234.955 251.465L229.639 246.228C225.205 241.86 218.071 241.914 213.703 246.347V246.347C209.336 250.781 209.389 257.915 213.823 262.283L219.139 267.52C223.573 271.888 230.707 271.834 235.075 267.401V267.401Z" fill="#DEFFE1"/>
<path d="M208.004 240.733C212.372 236.299 212.318 229.165 207.885 224.797L202.568 219.56C198.135 215.192 191 215.246 186.632 219.679V219.679C182.265 224.113 182.318 231.248 186.752 235.615L192.068 240.852C196.502 245.22 203.637 245.166 208.004 240.733V240.733Z" fill="#DEFFE1"/>
<path d="M180.933 214.065C185.301 209.632 185.247 202.497 180.814 198.129L175.497 192.892C171.064 188.525 163.929 188.578 159.562 193.012V193.012C155.194 197.445 155.247 204.58 159.681 208.948L164.997 214.185C169.431 218.552 176.566 218.499 180.933 214.065V214.065Z" fill="#DEFFE1"/>
</svg>
