<svg width="871" height="222" viewBox="0 0 871 222" fill="none" xmlns="http://www.w3.org/2000/svg">
<path d="M358.234 137.133C358.234 147.211 356.453 156.047 352.891 163.641C349.328 171.234 344.219 177.094 337.562 181.219C330.953 185.344 323.359 187.406 314.781 187.406C306.297 187.406 298.727 185.367 292.07 181.289C285.414 177.211 280.258 171.398 276.602 163.852C272.945 156.258 271.094 147.539 271.047 137.695V132.633C271.047 122.555 272.852 113.695 276.461 106.055C280.117 98.3672 285.25 92.4844 291.859 88.4062C298.516 84.2812 306.109 82.2188 314.641 82.2188C323.172 82.2188 330.742 84.2812 337.352 88.4062C344.008 92.4844 349.141 98.3672 352.75 106.055C356.406 113.695 358.234 122.531 358.234 132.562V137.133ZM336.859 132.492C336.859 121.758 334.938 113.602 331.094 108.023C327.25 102.445 321.766 99.6562 314.641 99.6562C307.562 99.6562 302.102 102.422 298.258 107.953C294.414 113.438 292.469 121.5 292.422 132.141V137.133C292.422 147.586 294.344 155.695 298.188 161.461C302.031 167.227 307.562 170.109 314.781 170.109C321.859 170.109 327.297 167.344 331.094 161.812C334.891 156.234 336.812 148.125 336.859 137.484V132.492ZM411.461 148.523H394.656V186H373.562V83.625H411.602C423.695 83.625 433.023 86.3203 439.586 91.7109C446.148 97.1016 449.43 104.719 449.43 114.562C449.43 121.547 447.906 127.383 444.859 132.07C441.859 136.711 437.289 140.414 431.148 143.18L453.297 185.016V186H430.656L411.461 148.523ZM394.656 131.438H411.672C416.969 131.438 421.07 130.102 423.977 127.43C426.883 124.711 428.336 120.984 428.336 116.25C428.336 111.422 426.953 107.625 424.188 104.859C421.469 102.094 417.273 100.711 411.602 100.711H394.656V131.438ZM523.328 164.906H486.344L479.312 186H456.883L494.992 83.625H514.539L552.859 186H530.43L523.328 164.906ZM492.039 147.82H517.633L504.766 109.5L492.039 147.82ZM583.516 149.93V186H562.422V83.625H602.359C610.047 83.625 616.797 85.0312 622.609 87.8438C628.469 90.6562 632.969 94.6641 636.109 99.8672C639.25 105.023 640.82 110.906 640.82 117.516C640.82 127.547 637.375 135.469 630.484 141.281C623.641 147.047 614.148 149.93 602.008 149.93H583.516ZM583.516 132.844H602.359C607.938 132.844 612.18 131.531 615.086 128.906C618.039 126.281 619.516 122.531 619.516 117.656C619.516 112.641 618.039 108.586 615.086 105.492C612.133 102.398 608.055 100.805 602.852 100.711H583.516V132.844ZM682.938 83.625L709.234 157.875L735.391 83.625H763.094V186H741.93V158.016L744.039 109.711L716.406 186H701.922L674.359 109.781L676.469 158.016V186H655.375V83.625H682.938ZM840.578 164.906H803.594L796.562 186H774.133L812.242 83.625H831.789L870.109 186H847.68L840.578 164.906ZM809.289 147.82H834.883L822.016 109.5L809.289 147.82Z" fill="#292929"/>
<path d="M46.419 119.786L121.43 46.2613L211.614 133.548C219.551 141.23 219.591 153.725 211.703 161.457L165.257 206.982C157.369 214.714 144.54 214.755 136.603 207.073L46.419 119.786Z" fill="#59B25B"/>
<ellipse rx="52.5182" ry="47.0391" transform="matrix(0.714146 -0.699997 0.718557 0.695468 83.0233 82.1515)" fill="#59B25B"/>
<path d="M6.79271 81.4335C3.0412 77.8025 3.02253 71.8964 6.75101 68.2417V68.2417C10.4795 64.5871 16.5432 64.568 20.2947 68.1989L59.921 106.552L46.419 119.786L6.79271 81.4335Z" fill="#59B25B"/>
<path d="M104.065 154.148C100.954 151.137 100.938 146.239 104.03 143.208L107.835 139.479C110.927 136.448 115.956 136.432 119.067 139.443V139.443C122.178 142.455 122.194 147.353 119.102 150.384L115.297 154.113C112.205 157.144 107.176 157.16 104.065 154.148V154.148Z" fill="#59B25B"/>
<path d="M123.068 135.522C119.957 132.511 119.941 127.613 123.033 124.582L126.838 120.852C129.93 117.822 134.959 117.806 138.07 120.817V120.817C141.181 123.828 141.197 128.726 138.105 131.757L134.3 135.486C131.208 138.517 126.179 138.533 123.068 135.522V135.522Z" fill="#59B25B"/>
<path d="M142.071 116.896C138.959 113.884 138.944 108.986 142.036 105.955L145.841 102.226C148.933 99.1952 153.962 99.1793 157.073 102.191V102.191C160.184 105.202 160.2 110.1 157.107 113.131L153.303 116.86C150.211 119.891 145.182 119.907 142.071 116.896V116.896Z" fill="#59B25B"/>
<path d="M118.937 168.543C115.826 165.531 115.81 160.633 118.902 157.602L122.707 153.873C125.799 150.842 130.828 150.826 133.939 153.838V153.838C137.051 156.849 137.066 161.747 133.974 164.778L130.169 168.507C127.077 171.538 122.048 171.554 118.937 168.543V168.543Z" fill="#59B25B"/>
<path d="M137.94 149.916C134.829 146.905 134.813 142.007 137.905 138.976L141.71 135.247C144.802 132.216 149.831 132.2 152.942 135.211V135.211C156.053 138.222 156.069 143.121 152.977 146.151L149.172 149.881C146.08 152.912 141.051 152.927 137.94 149.916V149.916Z" fill="#59B25B"/>
<path d="M156.943 131.29C153.832 128.279 153.816 123.38 156.908 120.35L160.713 116.62C163.805 113.589 168.834 113.574 171.945 116.585V116.585C175.056 119.596 175.072 124.494 171.98 127.525L168.175 131.254C165.083 134.285 160.054 134.301 156.943 131.29V131.29Z" fill="#59B25B"/>
<path d="M135.612 184.682C132.501 181.67 132.485 176.772 135.577 173.741L139.382 170.012C142.474 166.981 147.503 166.965 150.614 169.977V169.977C153.725 172.988 153.741 177.886 150.649 180.917L146.844 184.646C143.752 187.677 138.723 187.693 135.612 184.682V184.682Z" fill="#59B25B"/>
<path d="M154.615 166.055C151.503 163.044 151.488 158.146 154.58 155.115L158.385 151.386C161.477 148.355 166.506 148.339 169.617 151.35V151.35C172.728 154.361 172.744 159.26 169.652 162.29L165.847 166.02C162.755 169.051 157.726 169.066 154.615 166.055V166.055Z" fill="#59B25B"/>
<path d="M173.618 147.429C170.506 144.418 170.491 139.519 173.583 136.489L177.388 132.759C180.48 129.728 185.509 129.713 188.62 132.724V132.724C191.731 135.735 191.746 140.633 188.654 143.664L184.85 147.393C181.758 150.424 176.729 150.44 173.618 147.429V147.429Z" fill="#59B25B"/>
<path d="M255.769 118.452L179.957 45.7097L75.8262 148.668L151.638 221.409L255.769 118.452Z" fill="#55D058"/>
<ellipse rx="52.5329" ry="47.3393" transform="matrix(-0.721566 -0.692346 -0.711102 0.703089 218.761 81.1931)" fill="#55D058"/>
<path d="M295.276 79.3903C298.99 75.7185 298.945 69.8108 295.177 66.1952V66.1952C291.409 62.5795 285.343 62.625 281.63 66.2967L242.123 105.358L255.769 118.452L295.276 79.3903Z" fill="#55D058"/>
<path d="M198.195 153.714C201.294 150.651 201.257 145.722 198.113 142.705L194.336 139.081C191.192 136.064 186.131 136.102 183.033 139.166V139.166C179.934 142.23 179.971 147.159 183.115 150.176L186.892 153.799C190.036 156.816 195.097 156.778 198.195 153.714V153.714Z" fill="#DEFFE1"/>
<path d="M178.989 135.287C182.088 132.223 182.051 127.294 178.907 124.277L175.131 120.653C171.987 117.636 166.926 117.674 163.827 120.738V120.738C160.729 123.802 160.765 128.731 163.91 131.748L167.686 135.371C170.83 138.388 175.891 138.35 178.989 135.287V135.287Z" fill="#DEFFE1"/>
<path d="M159.784 116.859C162.882 113.795 162.845 108.866 159.701 105.849L155.925 102.225C152.781 99.2085 147.72 99.2465 144.621 102.31V102.31C141.523 105.374 141.56 110.303 144.704 113.32L148.48 116.943C151.624 119.96 156.685 119.922 159.784 116.859V116.859Z" fill="#DEFFE1"/>
<path d="M183.383 168.359C186.482 165.296 186.445 160.366 183.301 157.349L179.525 153.726C176.38 150.709 171.32 150.747 168.221 153.811V153.811C165.122 156.875 165.159 161.804 168.304 164.821L172.08 168.444C175.224 171.461 180.285 171.423 183.383 168.359V168.359Z" fill="#DEFFE1"/>
<path d="M164.178 149.931C167.276 146.868 167.239 141.938 164.095 138.922L160.319 135.298C157.175 132.281 152.114 132.319 149.015 135.383V135.383C145.917 138.447 145.954 143.376 149.098 146.393L152.874 150.016C156.018 153.033 161.079 152.995 164.178 149.931V149.931Z" fill="#DEFFE1"/>
<path d="M144.972 131.503C148.071 128.44 148.034 123.51 144.889 120.494L141.113 116.87C137.969 113.853 132.908 113.891 129.81 116.955V116.955C126.711 120.019 126.748 124.948 129.892 127.965L133.668 131.588C136.813 134.605 141.873 134.567 144.972 131.503V131.503Z" fill="#DEFFE1"/>
<path d="M166.776 184.779C169.875 181.716 169.838 176.786 166.694 173.769L162.917 170.146C159.773 167.129 154.713 167.167 151.614 170.231V170.231C148.515 173.295 148.552 178.224 151.696 181.241L155.473 184.864C158.617 187.881 163.678 187.843 166.776 184.779V184.779Z" fill="#DEFFE1"/>
<path d="M147.571 166.351C150.669 163.288 150.632 158.358 147.488 155.342L143.712 151.718C140.568 148.701 135.507 148.739 132.408 151.803V151.803C129.31 154.867 129.347 159.796 132.491 162.813L136.267 166.436C139.411 169.453 144.472 169.415 147.571 166.351V166.351Z" fill="#DEFFE1"/>
<path d="M128.365 147.923C131.464 144.86 131.427 139.93 128.282 136.914L124.506 133.29C121.362 130.273 116.301 130.311 113.203 133.375V133.375C110.104 136.439 110.141 141.368 113.285 144.385L117.061 148.008C120.206 151.025 125.266 150.987 128.365 147.923V147.923Z" fill="#DEFFE1"/>
</svg>
